<?xml version="1.0" encoding="UTF-8"?>
<svg width="834px" height="678px" viewBox="0 0 834 678" version="1.1" xmlns="http://www.w3.org/2000/svg" xmlns:xlink="http://www.w3.org/1999/xlink">
    <!-- Generator: Sketch 45.1 (43504) - http://www.bohemiancoding.com/sketch -->
    <title>Group 5</title>
    <desc>Created with Sketch.</desc>
    <defs></defs>
    <g id="Page-1" stroke="none" stroke-width="1" fill="none" fill-rule="evenodd">
        <g id="Group-5" fill-rule="nonzero" fill="#0D0703">
            <path d="M732.86,105.09 L732.86,105.09 L610.25,105.09 L564.79,13.73 C560.721573,5.9001662 552.811764,0.809582057 544,0.35 C543.16,0.27 542.3,0.18 541.44,0.18 L291.52,0.18 C286.773977,0.177654075 282.144262,1.64868043 278.27,4.39 C274.220145,6.84631354 270.934125,10.3816421 268.78,14.6 L224.22,105.12 L155.78,105.12 L155.78,79.05 C156.030254,69.570785 151.146753,60.6940098 143.006189,55.8309491 C134.865625,50.9678884 124.734627,50.8752092 116.506457,55.5885273 C108.278287,60.3018455 103.233207,69.0877931 103.31,78.57 L103.31,105.12 L100,105.12 C73.6313632,105.119999 48.3430093,115.596268 29.6994429,134.243586 C11.0558765,152.890903 0.584694973,178.181364 0.59,204.55 L0.59,578.43 C0.587345936,604.794146 11.0606557,630.078955 29.7047976,648.719346 C48.3489395,667.359737 73.6358551,677.827959 100,677.82 L734,677.82 C760.365984,677.822653 785.652848,667.349981 804.296415,648.706415 C822.939981,630.062848 833.412653,604.775984 833.41,578.41 L833.41,204 C833.38,149.38 788.37,105.14 732.86,105.09 Z M783.13,577.76 C783.159202,590.941153 777.948948,603.593604 768.646277,612.93191 C759.343606,622.270216 746.711168,627.528807 733.53,627.55 L100.53,627.55 C73.0899328,627.51137 50.868935,605.250092 50.88,577.81 L50.88,205.15 C50.8614218,191.968736 56.0798477,179.319964 65.387281,169.986276 C74.6947143,160.652588 87.3287364,155.398552 100.51,155.38 L245.39,155.38 C253.658812,154.30836 260.882433,149.240932 264.62,141.8 L309.62,50.45 L529,50.45 L573.36,141.73 C577.146609,149.320244 584.560453,154.438967 593,155.29 L733.48,155.38 C746.662077,155.390602 759.299745,160.638702 768.611503,169.969214 C777.92326,179.299726 783.145921,191.947928 783.13,205.13 L783.13,577.76 Z" id="Shape"></path>
            <path d="M651.63,207.84 C637.237459,207.84 625.57,219.507459 625.57,233.9 C625.57,248.292541 637.237459,259.96 651.63,259.96 C666.022541,259.96 677.69,248.292541 677.69,233.9 L677.69,233.9 C677.705937,226.993981 674.973696,220.365355 670.096022,215.476425 C665.218348,210.587494 658.596037,207.839982 651.69,207.84 L651.63,207.84 Z" id="Shape"></path>
            <g id="Ellipse_1" transform="translate(619.000000, 201.000000)">
                <circle id="Oval" cx="32.95" cy="33.37" r="32.88"></circle>
            </g>
            <path d="M320.51,398.49 L320.51,398.49 C320.77,398.49 321.03,398.49 321.28,398.49 C326.312845,398.489593 330.498441,394.61759 330.89,389.6 C330.89,389.36 332.98,365.26 348.89,346.45 C368.14,323.65 399.61,315.37 400.12,315.24 C403.464006,314.396853 406.104181,311.833748 407.045998,308.51618 C407.987814,305.198613 407.088187,301.630601 404.685998,299.15618 C402.283808,296.681759 398.744006,295.676853 395.4,296.52 C393.87,296.9 357.55,306.28 334.14,333.99 C314.29,357.5 311.78,386.85 311.68,388.09 C311.248167,393.399667 315.200603,398.054858 320.51,398.49 Z" id="Shape"></path>
            <path d="M417.09,176.73 C304.69,176.68 213.85,269.08 216.46,382.08 C218.92,488.49 305.67,575.31 412.08,577.86 C525.08,580.57 617.55,489.81 617.6,377.41 L617.6,377.32 C617.62,266.56 527.85,176.76 417.09,176.73 Z M282.79,409.64 C282.876026,343.255362 331.321867,286.834251 396.93,276.71 C394.296202,268.00419 397.497903,258.587648 404.892461,253.291561 C412.287019,247.995474 422.232981,247.995474 429.627539,253.291561 C437.022097,258.587648 440.223798,268.00419 437.59,276.71 C503.198133,286.834251 551.643974,343.255362 551.73,409.64 L551.73,409.64 C551.73,414.969548 547.409548,419.29 542.08,419.29 L292.44,419.29 C287.110452,419.29 282.79,414.969548 282.79,409.64 Z M559.79,445.57 C559.79,450.882979 555.482979,455.19 550.17,455.19 L283.87,455.19 C281.317806,455.195312 278.868324,454.185178 277.061771,452.382377 C275.255219,450.579576 274.239994,448.132199 274.24,445.58 L274.24,445.58 L274.24,439.17 C274.24,433.857021 278.547021,429.55 283.86,429.55 L550.13,429.55 C555.444599,429.549997 559.754481,433.855404 559.76,439.17 L559.79,445.57 Z" id="Shape"></path>
        </g>
    </g>
</svg>